<?xml version="1.0" standalone="yes"?>
<svg version="1.1" xmlns="http://www.w3.org/2000/svg" xmlns:xlink="http://www.w3.org/1999/xlink" xmlns:ev="http://www.w3.org/2001/xml-events" width="319" height="319">
<rect width="11" height="11" x="0" y="0" style="fill:#000"/><rect width="11" height="11" x="11" y="0" style="fill:#000"/><rect width="11" height="11" x="22" y="0" style="fill:#000"/><rect width="11" height="11" x="33" y="0" style="fill:#000"/><rect width="11" height="11" x="44" y="0" style="fill:#000"/><rect width="11" height="11" x="55" y="0" style="fill:#000"/><rect width="11" height="11" x="66" y="0" style="fill:#000"/><rect width="11" height="11" x="88" y="0" style="fill:#000"/><rect width="11" height="11" x="121" y="0" style="fill:#000"/><rect width="11" height="11" x="143" y="0" style="fill:#000"/><rect width="11" height="11" x="165" y="0" style="fill:#000"/><rect width="11" height="11" x="176" y="0" style="fill:#000"/><rect width="11" height="11" x="242" y="0" style="fill:#000"/><rect width="11" height="11" x="253" y="0" style="fill:#000"/><rect width="11" height="11" x="264" y="0" style="fill:#000"/><rect width="11" height="11" x="275" y="0" style="fill:#000"/><rect width="11" height="11" x="286" y="0" style="fill:#000"/><rect width="11" height="11" x="297" y="0" style="fill:#000"/><rect width="11" height="11" x="308" y="0" style="fill:#000"/>
<rect width="11" height="11" x="0" y="11" style="fill:#000"/><rect width="11" height="11" x="66" y="11" style="fill:#000"/><rect width="11" height="11" x="88" y="11" style="fill:#000"/><rect width="11" height="11" x="110" y="11" style="fill:#000"/><rect width="11" height="11" x="143" y="11" style="fill:#000"/><rect width="11" height="11" x="176" y="11" style="fill:#000"/><rect width="11" height="11" x="220" y="11" style="fill:#000"/><rect width="11" height="11" x="242" y="11" style="fill:#000"/><rect width="11" height="11" x="308" y="11" style="fill:#000"/>
<rect width="11" height="11" x="0" y="22" style="fill:#000"/><rect width="11" height="11" x="22" y="22" style="fill:#000"/><rect width="11" height="11" x="33" y="22" style="fill:#000"/><rect width="11" height="11" x="44" y="22" style="fill:#000"/><rect width="11" height="11" x="66" y="22" style="fill:#000"/><rect width="11" height="11" x="88" y="22" style="fill:#000"/><rect width="11" height="11" x="121" y="22" style="fill:#000"/><rect width="11" height="11" x="143" y="22" style="fill:#000"/><rect width="11" height="11" x="165" y="22" style="fill:#000"/><rect width="11" height="11" x="176" y="22" style="fill:#000"/><rect width="11" height="11" x="242" y="22" style="fill:#000"/><rect width="11" height="11" x="264" y="22" style="fill:#000"/><rect width="11" height="11" x="275" y="22" style="fill:#000"/><rect width="11" height="11" x="286" y="22" style="fill:#000"/><rect width="11" height="11" x="308" y="22" style="fill:#000"/>
<rect width="11" height="11" x="0" y="33" style="fill:#000"/><rect width="11" height="11" x="22" y="33" style="fill:#000"/><rect width="11" height="11" x="33" y="33" style="fill:#000"/><rect width="11" height="11" x="44" y="33" style="fill:#000"/><rect width="11" height="11" x="66" y="33" style="fill:#000"/><rect width="11" height="11" x="99" y="33" style="fill:#000"/><rect width="11" height="11" x="154" y="33" style="fill:#000"/><rect width="11" height="11" x="176" y="33" style="fill:#000"/><rect width="11" height="11" x="187" y="33" style="fill:#000"/><rect width="11" height="11" x="242" y="33" style="fill:#000"/><rect width="11" height="11" x="264" y="33" style="fill:#000"/><rect width="11" height="11" x="275" y="33" style="fill:#000"/><rect width="11" height="11" x="286" y="33" style="fill:#000"/><rect width="11" height="11" x="308" y="33" style="fill:#000"/>
<rect width="11" height="11" x="0" y="44" style="fill:#000"/><rect width="11" height="11" x="22" y="44" style="fill:#000"/><rect width="11" height="11" x="33" y="44" style="fill:#000"/><rect width="11" height="11" x="44" y="44" style="fill:#000"/><rect width="11" height="11" x="66" y="44" style="fill:#000"/><rect width="11" height="11" x="99" y="44" style="fill:#000"/><rect width="11" height="11" x="132" y="44" style="fill:#000"/><rect width="11" height="11" x="165" y="44" style="fill:#000"/><rect width="11" height="11" x="187" y="44" style="fill:#000"/><rect width="11" height="11" x="198" y="44" style="fill:#000"/><rect width="11" height="11" x="209" y="44" style="fill:#000"/><rect width="11" height="11" x="220" y="44" style="fill:#000"/><rect width="11" height="11" x="242" y="44" style="fill:#000"/><rect width="11" height="11" x="264" y="44" style="fill:#000"/><rect width="11" height="11" x="275" y="44" style="fill:#000"/><rect width="11" height="11" x="286" y="44" style="fill:#000"/><rect width="11" height="11" x="308" y="44" style="fill:#000"/>
<rect width="11" height="11" x="0" y="55" style="fill:#000"/><rect width="11" height="11" x="66" y="55" style="fill:#000"/><rect width="11" height="11" x="88" y="55" style="fill:#000"/><rect width="11" height="11" x="99" y="55" style="fill:#000"/><rect width="11" height="11" x="121" y="55" style="fill:#000"/><rect width="11" height="11" x="132" y="55" style="fill:#000"/><rect width="11" height="11" x="143" y="55" style="fill:#000"/><rect width="11" height="11" x="187" y="55" style="fill:#000"/><rect width="11" height="11" x="220" y="55" style="fill:#000"/><rect width="11" height="11" x="242" y="55" style="fill:#000"/><rect width="11" height="11" x="308" y="55" style="fill:#000"/>
<rect width="11" height="11" x="0" y="66" style="fill:#000"/><rect width="11" height="11" x="11" y="66" style="fill:#000"/><rect width="11" height="11" x="22" y="66" style="fill:#000"/><rect width="11" height="11" x="33" y="66" style="fill:#000"/><rect width="11" height="11" x="44" y="66" style="fill:#000"/><rect width="11" height="11" x="55" y="66" style="fill:#000"/><rect width="11" height="11" x="66" y="66" style="fill:#000"/><rect width="11" height="11" x="88" y="66" style="fill:#000"/><rect width="11" height="11" x="110" y="66" style="fill:#000"/><rect width="11" height="11" x="132" y="66" style="fill:#000"/><rect width="11" height="11" x="154" y="66" style="fill:#000"/><rect width="11" height="11" x="176" y="66" style="fill:#000"/><rect width="11" height="11" x="198" y="66" style="fill:#000"/><rect width="11" height="11" x="220" y="66" style="fill:#000"/><rect width="11" height="11" x="242" y="66" style="fill:#000"/><rect width="11" height="11" x="253" y="66" style="fill:#000"/><rect width="11" height="11" x="264" y="66" style="fill:#000"/><rect width="11" height="11" x="275" y="66" style="fill:#000"/><rect width="11" height="11" x="286" y="66" style="fill:#000"/><rect width="11" height="11" x="297" y="66" style="fill:#000"/><rect width="11" height="11" x="308" y="66" style="fill:#000"/>
<rect width="11" height="11" x="88" y="77" style="fill:#000"/><rect width="11" height="11" x="99" y="77" style="fill:#000"/><rect width="11" height="11" x="110" y="77" style="fill:#000"/><rect width="11" height="11" x="121" y="77" style="fill:#000"/><rect width="11" height="11" x="132" y="77" style="fill:#000"/><rect width="11" height="11" x="187" y="77" style="fill:#000"/><rect width="11" height="11" x="198" y="77" style="fill:#000"/><rect width="11" height="11" x="220" y="77" style="fill:#000"/>
<rect width="11" height="11" x="22" y="88" style="fill:#000"/><rect width="11" height="11" x="33" y="88" style="fill:#000"/><rect width="11" height="11" x="44" y="88" style="fill:#000"/><rect width="11" height="11" x="66" y="88" style="fill:#000"/><rect width="11" height="11" x="88" y="88" style="fill:#000"/><rect width="11" height="11" x="99" y="88" style="fill:#000"/><rect width="11" height="11" x="110" y="88" style="fill:#000"/><rect width="11" height="11" x="121" y="88" style="fill:#000"/><rect width="11" height="11" x="132" y="88" style="fill:#000"/><rect width="11" height="11" x="143" y="88" style="fill:#000"/><rect width="11" height="11" x="176" y="88" style="fill:#000"/><rect width="11" height="11" x="209" y="88" style="fill:#000"/><rect width="11" height="11" x="231" y="88" style="fill:#000"/><rect width="11" height="11" x="242" y="88" style="fill:#000"/><rect width="11" height="11" x="253" y="88" style="fill:#000"/><rect width="11" height="11" x="286" y="88" style="fill:#000"/><rect width="11" height="11" x="297" y="88" style="fill:#000"/><rect width="11" height="11" x="308" y="88" style="fill:#000"/>
<rect width="11" height="11" x="33" y="99" style="fill:#000"/><rect width="11" height="11" x="44" y="99" style="fill:#000"/><rect width="11" height="11" x="55" y="99" style="fill:#000"/><rect width="11" height="11" x="77" y="99" style="fill:#000"/><rect width="11" height="11" x="110" y="99" style="fill:#000"/><rect width="11" height="11" x="132" y="99" style="fill:#000"/><rect width="11" height="11" x="154" y="99" style="fill:#000"/><rect width="11" height="11" x="176" y="99" style="fill:#000"/><rect width="11" height="11" x="187" y="99" style="fill:#000"/><rect width="11" height="11" x="198" y="99" style="fill:#000"/><rect width="11" height="11" x="220" y="99" style="fill:#000"/><rect width="11" height="11" x="231" y="99" style="fill:#000"/><rect width="11" height="11" x="253" y="99" style="fill:#000"/><rect width="11" height="11" x="275" y="99" style="fill:#000"/><rect width="11" height="11" x="286" y="99" style="fill:#000"/><rect width="11" height="11" x="297" y="99" style="fill:#000"/><rect width="11" height="11" x="308" y="99" style="fill:#000"/>
<rect width="11" height="11" x="0" y="110" style="fill:#000"/><rect width="11" height="11" x="11" y="110" style="fill:#000"/><rect width="11" height="11" x="22" y="110" style="fill:#000"/><rect width="11" height="11" x="33" y="110" style="fill:#000"/><rect width="11" height="11" x="44" y="110" style="fill:#000"/><rect width="11" height="11" x="66" y="110" style="fill:#000"/><rect width="11" height="11" x="132" y="110" style="fill:#000"/><rect width="11" height="11" x="143" y="110" style="fill:#000"/><rect width="11" height="11" x="165" y="110" style="fill:#000"/><rect width="11" height="11" x="187" y="110" style="fill:#000"/><rect width="11" height="11" x="209" y="110" style="fill:#000"/><rect width="11" height="11" x="231" y="110" style="fill:#000"/><rect width="11" height="11" x="286" y="110" style="fill:#000"/><rect width="11" height="11" x="297" y="110" style="fill:#000"/>
<rect width="11" height="11" x="0" y="121" style="fill:#000"/><rect width="11" height="11" x="33" y="121" style="fill:#000"/><rect width="11" height="11" x="44" y="121" style="fill:#000"/><rect width="11" height="11" x="55" y="121" style="fill:#000"/><rect width="11" height="11" x="99" y="121" style="fill:#000"/><rect width="11" height="11" x="176" y="121" style="fill:#000"/><rect width="11" height="11" x="209" y="121" style="fill:#000"/><rect width="11" height="11" x="220" y="121" style="fill:#000"/><rect width="11" height="11" x="242" y="121" style="fill:#000"/><rect width="11" height="11" x="253" y="121" style="fill:#000"/><rect width="11" height="11" x="275" y="121" style="fill:#000"/><rect width="11" height="11" x="286" y="121" style="fill:#000"/>
<rect width="11" height="11" x="0" y="132" style="fill:#000"/><rect width="11" height="11" x="11" y="132" style="fill:#000"/><rect width="11" height="11" x="22" y="132" style="fill:#000"/><rect width="11" height="11" x="33" y="132" style="fill:#000"/><rect width="11" height="11" x="55" y="132" style="fill:#000"/><rect width="11" height="11" x="66" y="132" style="fill:#000"/><rect width="11" height="11" x="88" y="132" style="fill:#000"/><rect width="11" height="11" x="99" y="132" style="fill:#000"/><rect width="11" height="11" x="110" y="132" style="fill:#000"/><rect width="11" height="11" x="121" y="132" style="fill:#000"/><rect width="11" height="11" x="143" y="132" style="fill:#000"/><rect width="11" height="11" x="176" y="132" style="fill:#000"/><rect width="11" height="11" x="187" y="132" style="fill:#000"/><rect width="11" height="11" x="209" y="132" style="fill:#000"/><rect width="11" height="11" x="253" y="132" style="fill:#000"/><rect width="11" height="11" x="297" y="132" style="fill:#000"/><rect width="11" height="11" x="308" y="132" style="fill:#000"/>
<rect width="11" height="11" x="0" y="143" style="fill:#000"/><rect width="11" height="11" x="33" y="143" style="fill:#000"/><rect width="11" height="11" x="44" y="143" style="fill:#000"/><rect width="11" height="11" x="88" y="143" style="fill:#000"/><rect width="11" height="11" x="99" y="143" style="fill:#000"/><rect width="11" height="11" x="132" y="143" style="fill:#000"/><rect width="11" height="11" x="154" y="143" style="fill:#000"/><rect width="11" height="11" x="165" y="143" style="fill:#000"/><rect width="11" height="11" x="176" y="143" style="fill:#000"/><rect width="11" height="11" x="187" y="143" style="fill:#000"/><rect width="11" height="11" x="198" y="143" style="fill:#000"/><rect width="11" height="11" x="220" y="143" style="fill:#000"/><rect width="11" height="11" x="231" y="143" style="fill:#000"/><rect width="11" height="11" x="242" y="143" style="fill:#000"/><rect width="11" height="11" x="253" y="143" style="fill:#000"/><rect width="11" height="11" x="264" y="143" style="fill:#000"/><rect width="11" height="11" x="297" y="143" style="fill:#000"/>
<rect width="11" height="11" x="0" y="154" style="fill:#000"/><rect width="11" height="11" x="11" y="154" style="fill:#000"/><rect width="11" height="11" x="22" y="154" style="fill:#000"/><rect width="11" height="11" x="33" y="154" style="fill:#000"/><rect width="11" height="11" x="66" y="154" style="fill:#000"/><rect width="11" height="11" x="77" y="154" style="fill:#000"/><rect width="11" height="11" x="99" y="154" style="fill:#000"/><rect width="11" height="11" x="110" y="154" style="fill:#000"/><rect width="11" height="11" x="121" y="154" style="fill:#000"/><rect width="11" height="11" x="132" y="154" style="fill:#000"/><rect width="11" height="11" x="154" y="154" style="fill:#000"/><rect width="11" height="11" x="176" y="154" style="fill:#000"/><rect width="11" height="11" x="231" y="154" style="fill:#000"/><rect width="11" height="11" x="253" y="154" style="fill:#000"/><rect width="11" height="11" x="275" y="154" style="fill:#000"/><rect width="11" height="11" x="286" y="154" style="fill:#000"/><rect width="11" height="11" x="297" y="154" style="fill:#000"/>
<rect width="11" height="11" x="33" y="165" style="fill:#000"/><rect width="11" height="11" x="44" y="165" style="fill:#000"/><rect width="11" height="11" x="99" y="165" style="fill:#000"/><rect width="11" height="11" x="110" y="165" style="fill:#000"/><rect width="11" height="11" x="121" y="165" style="fill:#000"/><rect width="11" height="11" x="143" y="165" style="fill:#000"/><rect width="11" height="11" x="264" y="165" style="fill:#000"/><rect width="11" height="11" x="275" y="165" style="fill:#000"/><rect width="11" height="11" x="308" y="165" style="fill:#000"/>
<rect width="11" height="11" x="66" y="176" style="fill:#000"/><rect width="11" height="11" x="77" y="176" style="fill:#000"/><rect width="11" height="11" x="88" y="176" style="fill:#000"/><rect width="11" height="11" x="165" y="176" style="fill:#000"/><rect width="11" height="11" x="220" y="176" style="fill:#000"/><rect width="11" height="11" x="231" y="176" style="fill:#000"/><rect width="11" height="11" x="253" y="176" style="fill:#000"/><rect width="11" height="11" x="264" y="176" style="fill:#000"/><rect width="11" height="11" x="308" y="176" style="fill:#000"/>
<rect width="11" height="11" x="0" y="187" style="fill:#000"/><rect width="11" height="11" x="11" y="187" style="fill:#000"/><rect width="11" height="11" x="33" y="187" style="fill:#000"/><rect width="11" height="11" x="55" y="187" style="fill:#000"/><rect width="11" height="11" x="99" y="187" style="fill:#000"/><rect width="11" height="11" x="110" y="187" style="fill:#000"/><rect width="11" height="11" x="132" y="187" style="fill:#000"/><rect width="11" height="11" x="143" y="187" style="fill:#000"/><rect width="11" height="11" x="176" y="187" style="fill:#000"/><rect width="11" height="11" x="264" y="187" style="fill:#000"/><rect width="11" height="11" x="308" y="187" style="fill:#000"/>
<rect width="11" height="11" x="0" y="198" style="fill:#000"/><rect width="11" height="11" x="55" y="198" style="fill:#000"/><rect width="11" height="11" x="66" y="198" style="fill:#000"/><rect width="11" height="11" x="77" y="198" style="fill:#000"/><rect width="11" height="11" x="88" y="198" style="fill:#000"/><rect width="11" height="11" x="99" y="198" style="fill:#000"/><rect width="11" height="11" x="143" y="198" style="fill:#000"/><rect width="11" height="11" x="154" y="198" style="fill:#000"/><rect width="11" height="11" x="165" y="198" style="fill:#000"/><rect width="11" height="11" x="198" y="198" style="fill:#000"/><rect width="11" height="11" x="220" y="198" style="fill:#000"/><rect width="11" height="11" x="231" y="198" style="fill:#000"/><rect width="11" height="11" x="242" y="198" style="fill:#000"/><rect width="11" height="11" x="253" y="198" style="fill:#000"/><rect width="11" height="11" x="264" y="198" style="fill:#000"/><rect width="11" height="11" x="275" y="198" style="fill:#000"/><rect width="11" height="11" x="297" y="198" style="fill:#000"/>
<rect width="11" height="11" x="0" y="209" style="fill:#000"/><rect width="11" height="11" x="22" y="209" style="fill:#000"/><rect width="11" height="11" x="55" y="209" style="fill:#000"/><rect width="11" height="11" x="99" y="209" style="fill:#000"/><rect width="11" height="11" x="121" y="209" style="fill:#000"/><rect width="11" height="11" x="143" y="209" style="fill:#000"/><rect width="11" height="11" x="154" y="209" style="fill:#000"/><rect width="11" height="11" x="165" y="209" style="fill:#000"/><rect width="11" height="11" x="176" y="209" style="fill:#000"/><rect width="11" height="11" x="264" y="209" style="fill:#000"/>
<rect width="11" height="11" x="0" y="220" style="fill:#000"/><rect width="11" height="11" x="22" y="220" style="fill:#000"/><rect width="11" height="11" x="33" y="220" style="fill:#000"/><rect width="11" height="11" x="66" y="220" style="fill:#000"/><rect width="11" height="11" x="77" y="220" style="fill:#000"/><rect width="11" height="11" x="88" y="220" style="fill:#000"/><rect width="11" height="11" x="99" y="220" style="fill:#000"/><rect width="11" height="11" x="132" y="220" style="fill:#000"/><rect width="11" height="11" x="165" y="220" style="fill:#000"/><rect width="11" height="11" x="176" y="220" style="fill:#000"/><rect width="11" height="11" x="187" y="220" style="fill:#000"/><rect width="11" height="11" x="198" y="220" style="fill:#000"/><rect width="11" height="11" x="220" y="220" style="fill:#000"/><rect width="11" height="11" x="231" y="220" style="fill:#000"/><rect width="11" height="11" x="242" y="220" style="fill:#000"/><rect width="11" height="11" x="253" y="220" style="fill:#000"/><rect width="11" height="11" x="264" y="220" style="fill:#000"/><rect width="11" height="11" x="275" y="220" style="fill:#000"/><rect width="11" height="11" x="308" y="220" style="fill:#000"/>
<rect width="11" height="11" x="88" y="231" style="fill:#000"/><rect width="11" height="11" x="110" y="231" style="fill:#000"/><rect width="11" height="11" x="121" y="231" style="fill:#000"/><rect width="11" height="11" x="132" y="231" style="fill:#000"/><rect width="11" height="11" x="154" y="231" style="fill:#000"/><rect width="11" height="11" x="176" y="231" style="fill:#000"/><rect width="11" height="11" x="187" y="231" style="fill:#000"/><rect width="11" height="11" x="198" y="231" style="fill:#000"/><rect width="11" height="11" x="220" y="231" style="fill:#000"/><rect width="11" height="11" x="264" y="231" style="fill:#000"/><rect width="11" height="11" x="297" y="231" style="fill:#000"/><rect width="11" height="11" x="308" y="231" style="fill:#000"/>
<rect width="11" height="11" x="0" y="242" style="fill:#000"/><rect width="11" height="11" x="11" y="242" style="fill:#000"/><rect width="11" height="11" x="22" y="242" style="fill:#000"/><rect width="11" height="11" x="33" y="242" style="fill:#000"/><rect width="11" height="11" x="44" y="242" style="fill:#000"/><rect width="11" height="11" x="55" y="242" style="fill:#000"/><rect width="11" height="11" x="66" y="242" style="fill:#000"/><rect width="11" height="11" x="99" y="242" style="fill:#000"/><rect width="11" height="11" x="110" y="242" style="fill:#000"/><rect width="11" height="11" x="121" y="242" style="fill:#000"/><rect width="11" height="11" x="165" y="242" style="fill:#000"/><rect width="11" height="11" x="209" y="242" style="fill:#000"/><rect width="11" height="11" x="220" y="242" style="fill:#000"/><rect width="11" height="11" x="242" y="242" style="fill:#000"/><rect width="11" height="11" x="264" y="242" style="fill:#000"/><rect width="11" height="11" x="275" y="242" style="fill:#000"/><rect width="11" height="11" x="286" y="242" style="fill:#000"/>
<rect width="11" height="11" x="0" y="253" style="fill:#000"/><rect width="11" height="11" x="66" y="253" style="fill:#000"/><rect width="11" height="11" x="99" y="253" style="fill:#000"/><rect width="11" height="11" x="143" y="253" style="fill:#000"/><rect width="11" height="11" x="165" y="253" style="fill:#000"/><rect width="11" height="11" x="187" y="253" style="fill:#000"/><rect width="11" height="11" x="220" y="253" style="fill:#000"/><rect width="11" height="11" x="264" y="253" style="fill:#000"/><rect width="11" height="11" x="275" y="253" style="fill:#000"/><rect width="11" height="11" x="297" y="253" style="fill:#000"/>
<rect width="11" height="11" x="0" y="264" style="fill:#000"/><rect width="11" height="11" x="22" y="264" style="fill:#000"/><rect width="11" height="11" x="33" y="264" style="fill:#000"/><rect width="11" height="11" x="44" y="264" style="fill:#000"/><rect width="11" height="11" x="66" y="264" style="fill:#000"/><rect width="11" height="11" x="88" y="264" style="fill:#000"/><rect width="11" height="11" x="110" y="264" style="fill:#000"/><rect width="11" height="11" x="132" y="264" style="fill:#000"/><rect width="11" height="11" x="154" y="264" style="fill:#000"/><rect width="11" height="11" x="220" y="264" style="fill:#000"/><rect width="11" height="11" x="231" y="264" style="fill:#000"/><rect width="11" height="11" x="242" y="264" style="fill:#000"/><rect width="11" height="11" x="253" y="264" style="fill:#000"/><rect width="11" height="11" x="264" y="264" style="fill:#000"/><rect width="11" height="11" x="286" y="264" style="fill:#000"/><rect width="11" height="11" x="308" y="264" style="fill:#000"/>
<rect width="11" height="11" x="0" y="275" style="fill:#000"/><rect width="11" height="11" x="22" y="275" style="fill:#000"/><rect width="11" height="11" x="33" y="275" style="fill:#000"/><rect width="11" height="11" x="44" y="275" style="fill:#000"/><rect width="11" height="11" x="66" y="275" style="fill:#000"/><rect width="11" height="11" x="88" y="275" style="fill:#000"/><rect width="11" height="11" x="110" y="275" style="fill:#000"/><rect width="11" height="11" x="121" y="275" style="fill:#000"/><rect width="11" height="11" x="132" y="275" style="fill:#000"/><rect width="11" height="11" x="165" y="275" style="fill:#000"/><rect width="11" height="11" x="187" y="275" style="fill:#000"/><rect width="11" height="11" x="209" y="275" style="fill:#000"/><rect width="11" height="11" x="220" y="275" style="fill:#000"/><rect width="11" height="11" x="253" y="275" style="fill:#000"/><rect width="11" height="11" x="275" y="275" style="fill:#000"/><rect width="11" height="11" x="286" y="275" style="fill:#000"/><rect width="11" height="11" x="297" y="275" style="fill:#000"/>
<rect width="11" height="11" x="0" y="286" style="fill:#000"/><rect width="11" height="11" x="22" y="286" style="fill:#000"/><rect width="11" height="11" x="33" y="286" style="fill:#000"/><rect width="11" height="11" x="44" y="286" style="fill:#000"/><rect width="11" height="11" x="66" y="286" style="fill:#000"/><rect width="11" height="11" x="88" y="286" style="fill:#000"/><rect width="11" height="11" x="110" y="286" style="fill:#000"/><rect width="11" height="11" x="121" y="286" style="fill:#000"/><rect width="11" height="11" x="143" y="286" style="fill:#000"/><rect width="11" height="11" x="154" y="286" style="fill:#000"/><rect width="11" height="11" x="198" y="286" style="fill:#000"/><rect width="11" height="11" x="209" y="286" style="fill:#000"/><rect width="11" height="11" x="220" y="286" style="fill:#000"/><rect width="11" height="11" x="231" y="286" style="fill:#000"/><rect width="11" height="11" x="242" y="286" style="fill:#000"/><rect width="11" height="11" x="253" y="286" style="fill:#000"/><rect width="11" height="11" x="264" y="286" style="fill:#000"/><rect width="11" height="11" x="286" y="286" style="fill:#000"/><rect width="11" height="11" x="297" y="286" style="fill:#000"/>
<rect width="11" height="11" x="0" y="297" style="fill:#000"/><rect width="11" height="11" x="66" y="297" style="fill:#000"/><rect width="11" height="11" x="121" y="297" style="fill:#000"/><rect width="11" height="11" x="132" y="297" style="fill:#000"/><rect width="11" height="11" x="143" y="297" style="fill:#000"/><rect width="11" height="11" x="176" y="297" style="fill:#000"/><rect width="11" height="11" x="187" y="297" style="fill:#000"/><rect width="11" height="11" x="198" y="297" style="fill:#000"/><rect width="11" height="11" x="242" y="297" style="fill:#000"/><rect width="11" height="11" x="253" y="297" style="fill:#000"/><rect width="11" height="11" x="264" y="297" style="fill:#000"/><rect width="11" height="11" x="275" y="297" style="fill:#000"/><rect width="11" height="11" x="286" y="297" style="fill:#000"/><rect width="11" height="11" x="297" y="297" style="fill:#000"/>
<rect width="11" height="11" x="0" y="308" style="fill:#000"/><rect width="11" height="11" x="11" y="308" style="fill:#000"/><rect width="11" height="11" x="22" y="308" style="fill:#000"/><rect width="11" height="11" x="33" y="308" style="fill:#000"/><rect width="11" height="11" x="44" y="308" style="fill:#000"/><rect width="11" height="11" x="55" y="308" style="fill:#000"/><rect width="11" height="11" x="66" y="308" style="fill:#000"/><rect width="11" height="11" x="110" y="308" style="fill:#000"/><rect width="11" height="11" x="165" y="308" style="fill:#000"/><rect width="11" height="11" x="198" y="308" style="fill:#000"/><rect width="11" height="11" x="209" y="308" style="fill:#000"/><rect width="11" height="11" x="220" y="308" style="fill:#000"/><rect width="11" height="11" x="231" y="308" style="fill:#000"/><rect width="11" height="11" x="242" y="308" style="fill:#000"/><rect width="11" height="11" x="264" y="308" style="fill:#000"/>
</svg>
